{
  "title": "Suicide Squad 2016 HD-TS x264-CPG.mkv",
  "uid": 15951802,
  "size": 2130260464,
  "categoryP": "video",
  "categoryS": "movies",
  "magnet": "?xt=urn:btih:cbba938605d1e976c2a650d3f7b390205f436f90&amp;dn=Suicide+Squad+2016+HD-TS+x264-CPG.mkv&amp;tr=udp%3A%2F%2Ftracker.leechers-paradise.org%3A6969&amp;tr=udp%3A%2F%2Fzer0day.ch%3A1337&amp;tr=udp%3A%2F%2Fopen.demonii.com%3A1337&amp;tr=udp%3A%2F%2Ftracker.coppersurfer.tk%3A6969&amp;tr=udp%3A%2F%2Fexodus.desync.com%3A6969",
  "seeders": 45,
  "leechers": 108,
  "uploader": null,
  "files": 1,
  "time": 1475575850,
  "description": "Suicide.Squad.2016.HDTS.x264-BiGDADDYVAiNFrom DC Comics comes the Suicide Squad, an antihero team of incarcerated supervillains who act as deniable assets for the United States government, undertaking high-risk black ops missions in exchange for commuted prison sentences. Starring: Will Smith, Margot Robbie, Joel Kinnaman, Viola Davis, Jai Courtney, Jay Hernandez, Adewale Akinnuoye-Agbaje, Jared Leto\r\n \r\nBasic Information\r\nFormat : Matroska\r\nFormat version : Version 4 / Version 2\r\nFile size : 1.64 GiB\r\nDuration : 1 h 53 min\r\nOverall bit rate mode : Variable\r\nOverall bit rate : 2 069 kb/s\r\nEncoded date : UTC 2016-08-14 19:10:20\r\nWriting application : mkvmerge v8.3.0 ('Over the Horizon') 64bit\r\nWriting library : libebml v1.3.1 + libmatroska v1.4.2\r\n\r\nVideo\r\nID : 1\r\nFormat : AVC\r\nFormat/Info : Advanced Video Codec\r\nFormat profile :   \r\nFormat settings, CABAC : Yes\r\nFormat settings, ReFrames : 3 frames\r\nCodec ID : V_MPEG4/ISO/AVC\r\nDuration : 1 h 53 min\r\nBit rate mode : Variable\r\nBit rate : 1 875 kb/s\r\nMaximum bit rate : 40.0 Mb/s\r\nWidth : 704 pixels\r\nHeight : 288 pixels\r\nDisplay aspect ratio : 2.40:1\r\nFrame rate mode : Constant\r\nFrame rate : 25.000 FPS\r\nColor space : YUV\r\nChroma subsampling : 4:2:0\r\nBit depth : 8 bits\r\nScan type : Progressive\r\nBits/(Pixel*Frame) : 0.370\r\nStream size : 1.49 GiB (91%)\r\nWriting library : x264 core 148 r2692 64f4e24\r\nDefault : Yes\r\nForced : No\r\nColor range : Full\r\nColor primaries : BT.709\r\nTransfer characteristics : BT.709\r\nMatrix coefficients : BT.709\r\n\r\nAudio\r\nID : 2\r\nFormat : MPEG Audio\r\nFormat version : Version 1\r\nFormat profile : Layer 3\r\nMode : Joint stereo\r\nMode extension : MS Stereo\r\nCodec ID : A_MPEG/L3\r\nCodec ID/Hint : MP3\r\nDuration : 1 h 53 min\r\nBit rate mode : Constant\r\nBit rate : 192 kb/s\r\nChannel(s) : 2 channels\r\nSampling rate : 44.1 kHz\r\nFrame rate : 38.281 FPS (1152 spf)\r\nCompression mode : Lossy\r\nStream size : 156 MiB (9%)",
  "parsed": {
    "xt": "urn:btih:cbba938605d1e976c2a650d3f7b390205f436f90",
    "dn": "Suicide Squad 2016 HD-TS x264-CPG.mkv",
    "tr": [
      "udp://exodus.desync.com:6969",
      "udp://open.demonii.com:1337",
      "udp://tracker.coppersurfer.tk:6969",
      "udp://tracker.leechers-paradise.org:6969",
      "udp://zer0day.ch:1337"
    ],
    "infoHash": "cbba938605d1e976c2a650d3f7b390205f436f90",
    "infoHashBuffer": {
      "type": "Buffer",
      "data": [
        203,
        186,
        147,
        134,
        5,
        209,
        233,
        118,
        194,
        166,
        80,
        211,
        247,
        179,
        144,
        32,
        95,
        67,
        111,
        144
      ]
    },
    "name": "Suicide Squad 2016 HD-TS x264-CPG.mkv",
    "announce": [
      "udp://exodus.desync.com:6969",
      "udp://open.demonii.com:1337",
      "udp://tracker.coppersurfer.tk:6969",
      "udp://tracker.leechers-paradise.org:6969",
      "udp://zer0day.ch:1337"
    ],
    "urlList": []
  },
  "previous": 22,
  "peers": 26,
  "last_updated": "2016-12-27T13:14:35.657Z"
}